<svg width="100" height="100" viewBox="0 0 100 100" fill="none" xmlns="http://www.w3.org/2000/svg">
<path d="M58.1199 56.4912C57.7575 56.3739 55.4672 55.3528 56.8984 51.0494H56.8779C60.6085 47.2487 63.4594 41.1328 63.4594 35.1117C63.4594 25.8534 57.2356 21 50.0023 21C42.7644 21 36.5748 25.8512 36.5748 35.1117C36.5748 41.1576 39.4098 47.2983 43.1632 51.0899C44.6263 54.8861 42.01 56.295 41.4631 56.4912C33.8879 59.203 25 64.1421 25 69.0181V70.8463C25 77.4896 38.0219 79 50.0729 79C62.1422 79 75 77.4896 75 70.8463V69.0181C75 63.9956 66.0688 59.0948 58.1199 56.4912ZM45.5492 76.1236C45.5492 70.3774 49.248 62.6205 49.248 62.6205L46.6887 60.6345C46.6887 58.7364 50 56.7504 50 56.7504C50 56.7504 53.3022 58.768 53.3022 60.6345L50.7521 62.6205C50.7521 62.6205 54.4508 70.3481 54.4508 76.1867C54.4508 77.1019 45.5492 76.89 45.5492 76.1236V76.1236Z" fill="#005284"/>
</svg>
