<svg width="50" height="50" viewBox="0 0 50 50" fill="none" xmlns="http://www.w3.org/2000/svg">
<path fill-rule="evenodd" clip-rule="evenodd" d="M25.4825 1.00037C25.7751 1.09682 26.0761 1.17371 26.3591 1.29321C28.4925 2.19502 29.2904 4.77086 28.049 6.72863C27.9826 6.83342 27.9128 6.9361 27.8212 7.07505C27.9745 7.13187 28.111 7.1867 28.2504 7.23343C29.7757 7.74408 30.7899 9.11219 30.8073 10.7213C30.8218 12.0757 30.8151 13.4303 30.8099 14.7849C30.8075 15.3586 30.5629 15.6028 29.9801 15.6064C28.7189 15.614 27.4577 15.609 26.1966 15.609C26.0284 15.609 25.8603 15.609 25.6287 15.609C25.6287 16.4466 25.6233 17.2348 25.6376 18.0228C25.6389 18.0944 25.7535 18.2001 25.8365 18.2285C26.4704 18.4456 26.7051 18.9367 26.7811 19.549C26.8031 19.7262 26.8432 19.9012 26.8892 20.1552C27.5079 19.8113 27.9935 19.158 28.6936 19.4527C29.1578 19.6479 29.5448 20.0528 29.9302 20.4036C30.9023 21.2883 30.3349 22.1002 29.6535 22.9417C30.5601 23.1317 31.5051 23.1195 31.6615 24.2277C33.1268 24.2277 34.5431 24.2275 35.9593 24.2277C38.2014 24.2277 40.4434 24.2262 42.6856 24.2285C43.4568 24.2294 43.6468 24.4213 43.6474 25.203C43.6497 28.0679 43.6535 30.9327 43.6415 33.7977C43.6401 34.1386 43.7071 34.3022 44.0737 34.4182C46.4407 35.1678 47.4 37.9001 46.0559 39.991C45.9905 40.0928 45.9268 40.1957 45.8513 40.3157C45.9768 40.3586 46.0781 40.3957 46.181 40.428C47.7842 40.9304 48.825 42.31 48.8411 43.9835C48.8536 45.2757 48.8305 46.5683 48.8521 47.8603C48.8592 48.2896 48.747 48.6182 48.3772 48.8446C47.0377 48.8446 45.6984 48.8446 44.359 48.8446C44.0334 48.619 43.7765 48.3496 43.9318 47.9165C44.0847 47.4903 44.4454 47.4335 44.8469 47.4392C45.6983 47.4513 46.5499 47.4428 47.4425 47.4428C47.4425 46.2772 47.4499 45.1602 47.4405 44.0432C47.4293 42.7176 46.4949 41.7096 45.176 41.6748C43.6982 41.6358 42.2175 41.6375 40.7395 41.6736C39.4155 41.7061 38.4824 42.7061 38.4672 44.0307C38.4596 44.6846 38.4655 45.3385 38.4655 45.9924C38.4654 46.4678 38.4655 46.9433 38.4655 47.4428C39.3727 47.4428 40.2118 47.4502 41.0505 47.4399C41.4483 47.4349 41.8073 47.4809 41.9683 47.9111C42.1329 48.351 41.8624 48.6081 41.5556 48.8446C40.2161 48.8446 38.8768 48.8446 37.5374 48.8446C37.1837 48.6339 37.0495 48.3329 37.0564 47.9135C37.0772 46.6218 37.0573 45.3296 37.0658 44.0376C37.0774 42.2959 38.0981 40.9328 39.7589 40.4181C39.8543 40.3886 39.9455 40.3454 40.0474 40.305C40.0067 40.2356 39.9851 40.1946 39.9594 40.1562C38.4541 37.905 39.3717 35.2101 41.9474 34.3785C42.2746 34.2727 42.2463 34.0829 42.2463 33.8525C42.2464 31.2686 42.2468 28.6844 42.2453 26.1003C42.2453 25.9521 42.229 25.8039 42.2186 25.6293C40.9805 25.6293 39.7987 25.6292 38.6169 25.6293C36.4376 25.6293 34.2581 25.6255 32.0789 25.6373C31.925 25.6381 31.6729 25.7169 31.634 25.8216C31.3858 26.4902 30.8694 26.721 30.2232 26.79C30.0664 26.8069 29.9133 26.8566 29.683 26.9079C30.2344 27.6879 30.8909 28.4141 30.0757 29.2804C29.6779 29.7031 29.2337 30.1417 28.7209 30.3821C28.0153 30.7127 27.5098 30.0322 26.8871 29.6866C26.8351 29.9856 26.8355 30.2104 26.7544 30.4005C26.6064 30.7471 26.4807 31.2788 26.2206 31.3681C25.5028 31.6144 25.6226 32.1218 25.6233 32.6321C25.6238 33.0212 25.6437 33.4119 25.6173 33.799C25.5938 34.1436 25.6875 34.3066 26.0516 34.4211C27.8589 34.9894 28.9256 36.7553 28.5588 38.6186C28.4423 39.2099 28.135 39.7638 27.9105 40.346C27.907 40.3446 27.963 40.371 28.0216 40.39C29.8623 40.9813 30.8091 42.2795 30.8117 44.221C30.8134 45.4352 30.7977 46.6497 30.8197 47.8635C30.8276 48.2933 30.7168 48.6222 30.3418 48.8446C26.7286 48.8446 23.1152 48.8446 19.502 48.8446C19.1539 48.6296 19.0178 48.3293 19.0244 47.9106C19.0453 46.5879 19.0221 45.2643 19.0361 43.9413C19.053 42.3247 20.1002 40.9317 21.6413 40.4396C21.7647 40.4002 21.8853 40.3528 22.0298 40.3011C21.4162 39.475 21.0995 38.5883 21.2209 37.6024C21.4208 35.9786 22.3286 34.9114 23.8719 34.3685C24.0097 34.32 24.1985 34.1528 24.2036 34.0337C24.2345 33.3189 24.2254 32.602 24.21 31.8864C24.208 31.7955 24.1077 31.6554 24.0227 31.6259C23.3705 31.4006 23.1324 30.8982 23.0584 30.2676C23.0384 30.0961 22.9869 29.9284 22.9331 29.6819C22.1677 30.2277 21.4568 30.8779 20.5969 30.1037C20.1657 29.7154 19.7307 29.2705 19.4754 28.7621C19.1105 28.0356 19.8128 27.522 20.1443 26.8884C19.7812 26.8196 19.4954 26.766 19.2099 26.7113C18.7808 26.6294 18.4416 26.3956 18.3074 25.9873C18.199 25.6577 18.0104 25.6239 17.7205 25.6247C14.5136 25.632 11.3067 25.6289 8.09985 25.6304C7.94907 25.6305 7.79841 25.6476 7.6262 25.6581C7.61499 25.7791 7.59941 25.8687 7.59941 25.9585C7.59791 28.6206 7.60327 31.2826 7.59056 33.9445C7.58907 34.255 7.73411 34.3199 7.98595 34.3998C9.83169 34.9857 10.9166 36.7795 10.5217 38.6703C10.4017 39.2449 10.0986 39.7814 9.87568 40.3451C9.87967 40.3466 9.93612 40.3722 9.99481 40.3907C11.8144 40.9702 12.7753 42.2737 12.78 44.1773C12.783 45.4071 12.7665 46.6371 12.7882 47.8665C12.7958 48.2967 12.6875 48.6265 12.307 48.8446C8.53798 48.8446 4.76899 48.8446 1 48.8446C1 48.0919 1 47.3468 1 46.6018C1.23452 46.3241 1.4729 46.0539 1.89708 46.1916C2.51938 46.3936 2.37035 46.9458 2.4192 47.418C5.40737 47.418 8.37162 47.418 11.3786 47.418C11.3786 46.2767 11.386 45.1598 11.3767 44.0429C11.3655 42.6767 10.4018 41.6904 9.02309 41.6679C7.60676 41.6447 6.18968 41.6488 4.77335 41.6666C3.58842 41.6816 2.7311 42.3774 2.45758 43.5224C2.36848 43.8954 2.24636 44.214 1.81184 44.2689C1.37707 44.3238 1.16287 44.0483 1.00012 43.705C1.00012 43.6115 1.00012 43.5181 1.00012 43.4248C1.16673 42.993 1.28698 42.5354 1.50916 42.1345C2.04324 41.1713 2.89783 40.6037 3.99428 40.3288C3.90967 40.191 3.84275 40.0776 3.77185 39.9668C2.45745 37.9156 3.39752 35.1969 5.71292 34.4434C6.13311 34.3067 6.20688 34.1131 6.20464 33.7202C6.18869 30.9015 6.19541 28.0824 6.19654 25.2635C6.19691 24.3944 6.36489 24.2279 7.23804 24.2277C10.7267 24.2269 14.2153 24.2243 17.7038 24.2328C18.0145 24.2335 18.1973 24.1832 18.3141 23.8426C18.4811 23.3552 18.9178 23.1612 19.4077 23.0871C19.6311 23.0532 19.8529 23.0076 20.1525 22.9535C19.8101 22.3383 19.1526 21.8477 19.4533 21.1532C19.6654 20.6634 20.0898 20.2502 20.4709 19.8518C21.3534 18.9291 22.1273 19.5753 22.9448 20.1641C23.0167 19.7997 23.075 19.5195 23.1268 19.238C23.2129 18.7713 23.479 18.46 23.9111 18.2663C24.0311 18.2124 24.2015 18.0841 24.2045 17.9853C24.2287 17.212 24.2179 16.4375 24.2179 15.6782C23.4872 15.5085 23.23 15.277 23.2673 14.8616C23.3083 14.4039 23.6396 14.2075 24.3758 14.2072C25.871 14.2065 27.3661 14.207 28.8612 14.207C29.0284 14.207 29.1958 14.207 29.3844 14.207C29.3844 12.9005 29.4587 11.6381 29.3621 10.3886C29.2769 9.28577 28.2907 8.47842 27.1802 8.46159C25.6699 8.43879 24.1586 8.4368 22.6485 8.46284C21.4921 8.48278 20.4995 9.40664 20.4528 10.5419C20.4036 11.738 20.4418 12.9376 20.4418 14.1591C20.6 14.1927 20.7508 14.2128 20.8937 14.2575C21.2355 14.3646 21.4017 14.6089 21.3785 14.9629C21.3552 15.3187 21.1551 15.5566 20.8007 15.5869C20.4146 15.6199 20.0214 15.6199 19.6351 15.588C19.2564 15.5568 19.042 15.2991 19.04 14.9284C19.0316 13.4179 18.9608 11.9015 19.068 10.3983C19.177 8.8692 20.0741 7.82757 21.5033 7.26184C21.659 7.20028 21.8223 7.15779 21.9424 7.11916C21.7181 6.56451 21.4165 6.04302 21.2968 5.48264C20.8653 3.46531 22.1012 1.57408 24.1052 1.09184C24.193 1.07078 24.2764 1.03103 24.3617 1C24.7349 1.00037 25.1087 1.00037 25.4825 1.00037ZM29.3954 47.4199C29.4023 47.3048 29.4092 47.2428 29.4092 47.1808C29.4097 46.1235 29.4182 45.0659 29.4072 44.0088C29.3938 42.7167 28.4598 41.713 27.1621 41.6765C25.6707 41.6347 24.1763 41.6393 22.6845 41.6755C21.5326 41.7035 20.5565 42.5256 20.4761 43.6341C20.3856 44.8823 20.4553 46.142 20.4553 47.4199C23.4399 47.4199 26.4007 47.4199 29.3954 47.4199ZM20.8534 21.4345C22.0028 23.275 21.6978 24.005 19.6231 24.5115C19.6231 24.794 19.6231 25.0789 19.6231 25.3707C20.3833 25.454 21.0507 25.5705 21.3974 26.3824C21.7551 27.2202 21.2934 27.7751 20.8972 28.3122C21.1034 28.5555 21.2794 28.7631 21.4806 29.0005C22.0739 28.5237 22.6357 28.0982 23.472 28.4502C24.3035 28.8003 24.3778 29.5119 24.483 30.2278C24.7997 30.2278 25.073 30.2278 25.3717 30.2278C25.4496 29.4644 25.5715 28.7839 26.4034 28.4369C27.2462 28.0852 27.7895 28.5816 28.2619 28.9077C28.5472 28.7089 28.7732 28.5515 28.9854 28.4034C27.8426 26.5627 28.1367 25.8578 30.2215 25.3342C30.2215 25.0523 30.2215 24.7671 30.2215 24.4715C29.4428 24.3919 28.7709 24.2574 28.4277 23.421C28.0821 22.5787 28.6059 22.0428 28.9472 21.5207C28.729 21.2686 28.5589 21.0719 28.3637 20.8463C27.7713 21.3167 27.2095 21.7459 26.3736 21.395C25.5419 21.046 25.4623 20.3374 25.3617 19.6164C25.0455 19.6164 24.7722 19.6164 24.4678 19.6164C24.399 20.3819 24.2687 21.0595 23.4404 21.407C22.5989 21.76 22.0538 21.2644 21.4609 20.8546C21.2417 21.064 21.0533 21.2437 20.8534 21.4345ZM24.908 2.40337C23.6379 2.4096 22.5905 3.46668 22.5982 4.7346C22.606 6.0004 23.673 7.05511 24.9348 7.04377C26.2046 7.03243 27.2551 5.97012 27.2451 4.70731C27.2351 3.4359 26.1814 2.39727 24.908 2.40337ZM24.9371 40.2586C26.2163 40.253 27.2557 39.2063 27.2454 37.9339C27.235 36.6596 26.1867 35.6317 24.9059 35.6398C23.6273 35.6476 22.588 36.6948 22.5977 37.9649C22.6076 39.2398 23.6524 40.2642 24.9371 40.2586ZM42.9531 35.6398C41.672 35.6387 40.6302 36.6732 40.6289 37.9473C40.6276 39.2214 41.6681 40.2579 42.9491 40.2588C44.2317 40.2596 45.2745 39.2256 45.2761 37.9512C45.2777 36.6802 44.2331 35.6407 42.9531 35.6398ZM6.8981 40.2586C8.1791 40.2564 9.21811 39.2178 9.2145 37.9431C9.21088 36.6695 8.16589 35.6361 6.88539 35.6398C5.60526 35.6433 4.56276 36.6847 4.56724 37.9556C4.57161 39.2298 5.6151 40.2608 6.8981 40.2586Z" fill="#005284" stroke="#005284"/>
<path fill-rule="evenodd" clip-rule="evenodd" d="M22.707 24.929C22.7021 23.715 23.7271 22.6941 24.9377 22.7074C26.139 22.7205 27.1302 23.7161 27.136 24.9151C27.1417 26.1269 26.1138 27.1507 24.9049 27.1373C23.7037 27.1241 22.712 26.1277 22.707 24.929ZM25.7291 24.9455C25.7431 24.5186 25.3868 24.1354 24.9563 24.1143C24.5314 24.0932 24.1436 24.4444 24.1152 24.8759C24.0862 25.3175 24.4632 25.7232 24.9097 25.7305C25.3375 25.7376 25.715 25.3758 25.7291 24.9455Z" fill="#005284" stroke="#005284"/>
</svg>
