<svg width="100" height="100" viewBox="0 0 100 100" fill="none" xmlns="http://www.w3.org/2000/svg">
<path d="M45 31.913C33.95 31.913 25 33.1522 25 41.8261V66.6087C25 68.7152 25.925 70.7226 27.5 72.1104V76.5217C27.5 77.8848 28.625 79 30 79H32.5C33.875 79 35 77.8848 35 76.5217V74.0435H55V76.5217C55 77.8848 56.125 79 57.5 79H60C61.375 79 62.5 77.8848 62.5 76.5217V72.1104C64.075 70.7226 65 68.7152 65 66.6087V41.8261C65 33.1522 56.05 31.913 45 31.913ZM33.75 69.087C31.675 69.087 30 67.4265 30 65.3696C30 63.3126 31.675 61.6522 33.75 61.6522C35.825 61.6522 37.5 63.3126 37.5 65.3696C37.5 67.4265 35.825 69.087 33.75 69.087ZM56.25 69.087C54.175 69.087 52.5 67.4265 52.5 65.3696C52.5 63.3126 54.175 61.6522 56.25 61.6522C58.325 61.6522 60 63.3126 60 65.3696C60 67.4265 58.325 69.087 56.25 69.087ZM60 54.2174H30V41.8261H60V54.2174ZM75 31.913V56.6957C75 58.8022 74.075 60.8096 72.5 62.1974V66.6087C72.5 67.9717 71.375 69.087 70 69.087H69.7C69.875 68.2939 70 67.4761 70 66.6087V41.8261C70 26.9565 52.5 26.9565 45 26.9565C42.725 26.9565 39.5 26.9565 36.15 27.3778C38.875 22.793 46.25 22 55 22C66.05 22 75 23.2391 75 31.913Z" fill="#005284"/>
</svg>
