<svg width="100" height="100" viewBox="0 0 100 100" fill="none" xmlns="http://www.w3.org/2000/svg">
<path d="M91.9987 43.0525V42.9835C92.0042 42.9014 91.9924 42.8191 91.9641 42.7419V42.6383C91.9641 42.5693 91.9295 42.5003 91.9295 42.4313V42.3623C91.8949 42.2587 91.8949 42.1897 91.8603 42.0862H91.8257L86.9842 30.0073C86.5788 28.9748 85.8695 28.089 84.9496 27.4668C84.0298 26.8446 82.9426 26.5151 81.8313 26.5217H69.8657V23.7609C69.8657 23.0286 69.5742 22.3264 69.0554 21.8086C68.5365 21.2909 67.8328 21 67.0991 21H14.5332C13.0657 21 11.6583 21.5818 10.6206 22.6173C9.58296 23.6528 9 25.0573 9 26.5217V65.174C9 66.6384 9.58296 68.0429 10.6206 69.0784C11.6583 70.114 13.0657 70.6957 14.5332 70.6957H19.029C19.6385 73.0712 21.0229 75.1767 22.964 76.6803C24.9051 78.1839 27.2924 79 29.7497 79C32.2069 79 34.5942 78.1839 36.5353 76.6803C38.4764 75.1767 39.8608 73.0712 40.4703 70.6957H60.5283C61.1378 73.0712 62.5222 75.1767 64.4633 76.6803C66.4044 78.1839 68.7918 79 71.249 79C73.7062 79 76.0936 78.1839 78.0347 76.6803C79.9757 75.1767 81.3602 73.0712 81.9697 70.6957H86.4654C87.9329 70.6957 89.3403 70.114 90.378 69.0784C91.4157 68.0429 91.9987 66.6384 91.9987 65.174V43.087V43.0525ZM69.8657 32.0435H81.8313L85.1513 40.3261H69.8657V32.0435ZM14.5332 26.5217H64.3324V48.6087H14.5332V26.5217ZM29.7497 73.4566C28.6553 73.4566 27.5855 73.1328 26.6756 72.526C25.7656 71.9193 25.0564 71.0569 24.6376 70.0479C24.2188 69.039 24.1092 67.9287 24.3227 66.8576C24.5362 65.7865 25.0632 64.8026 25.8371 64.0304C26.6109 63.2582 27.5968 62.7323 28.6702 62.5192C29.7435 62.3061 30.8561 62.4155 31.8671 62.8334C32.8782 63.2513 33.7424 63.9591 34.3504 64.8671C34.9584 65.7752 35.2829 66.8428 35.2829 67.9349C35.2829 69.3993 34.6999 70.8038 33.6623 71.8393C32.6246 72.8748 31.2172 73.4566 29.7497 73.4566ZM71.249 73.4566C70.1546 73.4566 69.0848 73.1328 68.1749 72.526C67.2649 71.9193 66.5557 71.0569 66.1369 70.0479C65.7181 69.039 65.6086 67.9287 65.8221 66.8576C66.0356 65.7865 66.5626 64.8026 67.3364 64.0304C68.1102 63.2582 69.0962 62.7323 70.1695 62.5192C71.2429 62.3061 72.3554 62.4155 73.3665 62.8334C74.3775 63.2513 75.2417 63.9591 75.8497 64.8671C76.4577 65.7752 76.7822 66.8428 76.7822 67.9349C76.7822 69.3993 76.1993 70.8038 75.1616 71.8393C74.1239 72.8748 72.7165 73.4566 71.249 73.4566Z" fill="#005284"/>
</svg>
