<svg width="100" height="100" viewBox="0 0 100 100" fill="none" xmlns="http://www.w3.org/2000/svg">
<path fill-rule="evenodd" clip-rule="evenodd" d="M44.9525 32.7559C38.2132 32.7559 31.5794 32.7559 24.8307 32.7559C24.8307 33.0273 24.8307 33.2939 24.8307 33.5604C24.8307 39.1019 24.8312 44.6434 24.8303 50.1848C24.8301 51.4102 24.49 51.7432 23.2451 51.7441C21.6385 51.7454 20.0319 51.748 18.4253 51.743C17.407 51.7398 17.0078 51.3593 17.0075 50.3699C17.0041 42.7095 17.0086 35.049 17 27.3887C16.9994 26.789 17.2288 26.3817 17.7411 26.0754C23.2101 22.8029 28.6757 19.5247 34.1362 16.238C34.6534 15.9267 35.1174 15.9177 35.6353 16.2291C41.0974 19.5139 46.5632 22.7925 52.0331 26.0642C52.572 26.3866 52.7854 26.823 52.7845 27.4453C52.774 35.0826 52.7792 42.7196 52.7759 50.3566C52.7753 51.353 52.3781 51.7398 51.3696 51.743C49.6931 51.7482 48.0166 51.749 46.3404 51.7426C45.3429 51.7389 44.9546 51.3468 44.9542 50.3378C44.951 44.7729 44.9525 39.2081 44.9525 33.6433C44.9525 33.3688 44.9525 33.0945 44.9525 32.7559ZM50.5048 49.482C50.5227 49.3383 50.5387 49.2703 50.5387 49.2021C50.5408 42.2157 50.5352 35.2294 50.5562 28.243C50.5575 27.7906 50.3205 27.6389 50.0177 27.4574C45.1884 24.5638 40.3563 21.6741 35.538 18.7622C35.0839 18.4877 34.76 18.4543 34.2858 18.7417C29.4697 21.6582 24.6408 24.5537 19.8014 27.4315C19.3564 27.6961 19.2288 27.9825 19.2301 28.4795C19.2469 35.2329 19.2415 41.9864 19.2415 48.7398C19.2415 48.985 19.2415 49.2302 19.2415 49.474C20.4053 49.474 21.4673 49.474 22.5952 49.474C22.5952 49.1902 22.5952 48.9403 22.5952 48.6902C22.5952 43.1709 22.595 37.6518 22.5953 32.1325C22.5955 30.8098 22.906 30.5052 24.2502 30.505C31.3763 30.5048 38.5024 30.5044 45.6285 30.5052C46.8561 30.5054 47.1882 30.8426 47.1884 32.089C47.1891 37.6084 47.1887 43.1277 47.1887 48.6468C47.1887 48.9176 47.1887 49.1883 47.1887 49.482C48.3355 49.482 49.3972 49.482 50.5048 49.482Z" fill="#005284"/>
<path fill-rule="evenodd" clip-rule="evenodd" d="M81.8594 58.4519C81.8594 56.1713 81.8594 53.991 81.8594 51.7782C82.6002 51.7782 83.2899 51.7782 84.0375 51.7782C84.0509 51.978 84.076 52.1781 84.0764 52.3782C84.0792 54.6603 84.0805 56.9425 84.077 59.2248C84.0755 60.3164 83.7032 60.6864 82.6051 60.6868C78.1572 60.689 73.7091 60.6879 69.2613 60.6879C69.0095 60.6879 68.7578 60.6879 68.468 60.6879C68.468 62.8755 68.468 65.008 68.468 67.3163C68.9415 66.7027 69.3375 66.1899 69.7819 65.614C70.3711 66.0569 70.9383 66.4832 71.5584 66.9491C70.3964 68.4919 69.2879 70.0119 68.1226 71.4866C67.6692 72.0601 66.892 72.0102 66.4267 71.4104C65.3022 69.9595 64.2152 68.4796 63.0711 66.956C63.6696 66.5033 64.2354 66.0753 64.8441 65.6151C65.2682 66.1704 65.6603 66.6835 66.1327 67.3024C66.1327 65.0421 66.1327 62.9033 66.1327 60.7259C60.5984 60.7259 55.065 60.7259 49.4778 60.7259C49.4778 62.8617 49.4778 65.0078 49.4778 67.3042C49.9472 66.6951 50.346 66.1776 50.7749 65.621C51.3678 66.0625 51.9239 66.4765 52.5511 66.9437C51.8983 67.8165 51.2633 68.6662 50.6277 69.5157C50.1674 70.131 49.7217 70.7576 49.2419 71.3571C48.7187 72.0109 47.9444 72.0694 47.4501 71.4385C46.3052 69.9769 45.2094 68.4768 44.0627 66.9515C44.6643 66.4994 45.2172 66.0845 45.8375 65.6184C46.2564 66.1633 46.6561 66.6835 47.1424 67.3161C47.1424 65.0436 47.1424 62.9178 47.1424 60.7399C41.2327 60.7399 35.3102 60.7399 29.3446 60.7399C29.3446 62.8707 29.3446 65.0035 29.3446 67.307C29.8121 66.7048 30.2079 66.1948 30.6571 65.616C31.2417 66.055 31.8085 66.481 32.432 66.9494C31.2743 68.4869 30.1658 70.0059 29.0017 71.4812C28.5474 72.0569 27.77 72.0143 27.3059 71.4163C26.18 69.9661 25.0929 68.4854 23.9443 66.9565C24.5388 66.5073 25.1041 66.08 25.7134 65.6194C26.1366 66.1677 26.5301 66.6783 27.015 67.3066C27.0379 66.9968 27.0636 66.8099 27.064 66.6232C27.0668 64.4108 27.0644 62.1984 27.0662 59.9862C27.0672 58.7972 27.4121 58.4528 28.605 58.4528C46.0242 58.4521 63.4434 58.4523 80.8628 58.4523C81.1614 58.4519 81.4599 58.4519 81.8594 58.4519Z" fill="#005284"/>
<path fill-rule="evenodd" clip-rule="evenodd" d="M71.7813 38.3299C73.2497 38.3299 74.6204 38.3474 75.9903 38.3224C76.6544 38.3105 77.0828 38.5728 77.3705 39.168C78.0179 40.5072 78.6937 41.8326 79.3567 43.164C79.4188 43.2887 79.5216 43.4169 79.5231 43.5445C79.5429 45.2614 79.5911 46.9802 79.5315 48.6949C79.5132 49.2179 79.0077 49.4945 78.4574 49.504C77.8062 49.5153 77.152 49.4766 76.5042 49.5265C76.2849 49.5433 75.9924 49.7134 75.8854 49.9005C75.2159 51.0711 74.2348 51.7368 72.888 51.7314C71.5415 51.726 70.5666 51.0517 69.9034 49.8787C69.7996 49.6953 69.4899 49.5287 69.2727 49.525C67.621 49.4958 65.9683 49.5192 64.3161 49.5012C63.9259 49.4971 63.7137 49.6001 63.5154 49.9726C62.9107 51.1087 61.9198 51.7227 60.6311 51.7329C59.3118 51.7437 58.3009 51.1216 57.6849 49.9614C57.4818 49.5791 57.258 49.4674 56.8762 49.506C56.715 49.5224 56.5507 49.5107 56.3878 49.5084C55.4224 49.4952 55.0167 49.1097 55.0154 48.1605C55.01 44.2045 55.0095 40.2484 55.016 36.2924C55.0177 35.3837 55.4289 34.9821 56.349 34.9791C58.6296 34.9717 60.9104 34.9765 63.1908 34.9765C65.5877 34.9765 67.9847 34.9732 70.3816 34.9782C71.3859 34.9803 71.7715 35.3693 71.7802 36.3701C71.786 36.994 71.7813 37.6186 71.7813 38.3299ZM57.2491 37.2407C57.2491 38.9703 57.2491 40.622 57.2491 42.2735C57.2491 43.9276 57.2491 45.5817 57.2491 47.3069C57.4121 47.2116 57.4717 47.1984 57.4855 47.1658C58.6365 44.3834 62.4173 44.345 63.6457 47.0024C63.6999 47.12 63.8717 47.2584 63.99 47.2595C65.8217 47.2759 67.6538 47.2711 69.5004 47.2711C69.5004 43.8844 69.5004 40.5708 69.5004 37.2407C65.4123 37.2407 61.3701 37.2407 57.2491 37.2407ZM77.3709 47.2154C77.3709 46.5142 77.3871 45.8644 77.3653 45.216C77.3506 44.7824 77.3826 44.307 77.2179 43.9263C76.7767 42.9056 76.2499 41.921 75.7334 40.9345C75.6518 40.7791 75.4498 40.5875 75.299 40.5836C74.1458 40.5544 72.9912 40.5674 71.8112 40.5674C71.8112 42.1466 71.8112 43.6481 71.8112 45.177C71.9787 45.153 72.1147 45.1392 72.2483 45.1131C73.5771 44.8543 74.9826 45.3427 75.6173 46.5244C76.0496 47.3298 76.5866 47.3534 77.3709 47.2154ZM60.5823 47.2783C59.9752 47.2901 59.4791 47.8046 59.4907 48.4103C59.5021 49.0161 60.018 49.5148 60.6221 49.503C61.2268 49.4915 61.726 48.9738 61.7144 48.3705C61.7029 47.7647 61.1866 47.2666 60.5823 47.2783ZM74.0112 48.4139C74.0247 47.8098 73.5277 47.2916 72.9223 47.2783C72.3171 47.2653 71.8005 47.7606 71.7871 48.3669C71.7739 48.9718 72.2697 49.4896 72.8753 49.5032C73.4785 49.5166 73.9978 49.0187 74.0112 48.4139Z" fill="#005284"/>
<path fill-rule="evenodd" clip-rule="evenodd" d="M30.42 42.7405C30.42 40.9958 30.4176 39.2777 30.421 37.5597C30.4232 36.4631 30.7892 36.0968 31.8856 36.0951C33.91 36.0917 35.9343 36.0906 37.9587 36.0957C38.966 36.0983 39.3577 36.4849 39.3611 37.4829C39.3672 39.2248 39.3629 40.9667 39.3629 42.8016C40.0695 42.8016 40.7348 42.7937 41.3998 42.8032C42.3075 42.8163 42.7105 43.2188 42.714 44.138C42.7219 46.2322 42.7224 48.3265 42.7137 50.4205C42.7098 51.3304 42.2989 51.7404 41.3856 51.7417C37.0576 51.7473 32.7295 51.7473 28.4015 51.7417C27.4837 51.7406 27.0732 51.334 27.0693 50.4261C27.0606 48.3319 27.0613 46.2374 27.069 44.1434C27.0723 43.1977 27.4781 42.8124 28.446 42.8019C29.0277 42.7958 29.6093 42.7977 30.191 42.7937C30.235 42.7936 30.279 42.7742 30.42 42.7405ZM37.1019 38.3865C35.5764 38.3865 34.1269 38.3865 32.6939 38.3865C32.6939 39.8761 32.6939 41.309 32.6939 42.7576C34.1815 42.7576 35.6308 42.7576 37.1019 42.7576C37.1019 41.2805 37.1019 39.8477 37.1019 38.3865ZM33.7369 49.478C33.7369 47.965 33.7369 46.532 33.7369 45.0799C32.2504 45.0799 30.8015 45.0799 29.3512 45.0799C29.3512 46.5729 29.3512 48.0222 29.3512 49.478C30.8333 49.478 32.2663 49.478 33.7369 49.478ZM40.4318 49.4777C40.4318 47.9726 40.4318 46.5231 40.4318 45.0928C38.9321 45.0928 37.4826 45.0928 36.0467 45.0928C36.0467 46.5816 36.0467 48.0145 36.0467 49.4777C37.5163 49.4777 38.9489 49.4777 40.4318 49.4777Z" fill="#005284"/>
<path fill-rule="evenodd" clip-rule="evenodd" d="M28.1946 83.043C25.7297 83.0477 23.7117 81.0311 23.7148 78.5665C23.7178 76.1007 25.7387 74.0934 28.2076 74.104C30.6438 74.1145 32.6406 76.1089 32.6531 78.5447C32.6658 81.0127 30.658 83.0386 28.1946 83.043ZM30.417 78.5883C30.4249 77.3748 29.4281 76.3567 28.216 76.3401C26.9985 76.323 25.9761 77.3083 25.9507 78.523C25.9246 79.7652 26.9454 80.8085 28.1858 80.8072C29.398 80.8059 30.4094 79.8 30.417 78.5883Z" fill="#005284"/>
<path fill-rule="evenodd" clip-rule="evenodd" d="M52.775 78.608C52.7603 81.069 50.7236 83.0665 48.253 83.0433C45.7955 83.0203 43.8068 80.9758 43.8368 78.5033C43.8662 76.0742 45.8831 74.0966 48.323 74.1043C50.7881 74.1117 52.7897 76.1368 52.775 78.608ZM50.539 78.5952C50.5503 77.3818 49.5566 76.3604 48.3448 76.3399C47.1299 76.3194 46.1015 77.3044 46.0726 78.516C46.043 79.7579 47.0606 80.8044 48.3007 80.807C49.5124 80.8098 50.5276 79.8066 50.539 78.5952Z" fill="#005284"/>
<path fill-rule="evenodd" clip-rule="evenodd" d="M71.7793 78.5443C71.7917 81.0124 69.7843 83.0384 67.3209 83.0433C64.8561 83.0481 62.8378 81.0316 62.8408 78.5671C62.8438 76.1286 64.8307 74.1237 67.2635 74.1043C69.7363 74.084 71.7666 76.0808 71.7793 78.5443ZM67.3038 76.3401C66.0896 76.3429 65.0828 77.3473 65.0769 78.5617C65.0711 79.776 66.0682 80.7921 67.2807 80.8072C68.5202 80.8229 69.5557 79.7896 69.5434 78.5501C69.5311 77.3376 68.517 76.3372 67.3038 76.3401Z" fill="#005284"/>
<path fill-rule="evenodd" clip-rule="evenodd" d="M84.0395 49.476C83.3214 49.476 82.6334 49.476 81.894 49.476C81.894 48.773 81.894 48.0688 81.894 47.3182C82.5917 47.3182 83.2955 47.3182 84.0395 47.3182C84.0395 48.0174 84.0395 48.7051 84.0395 49.476Z" fill="#005284"/>
</svg>
