<svg width="346" height="98" viewBox="0 0 346 98" fill="none" xmlns="http://www.w3.org/2000/svg">
<path d="M133.107 16.2298C132.905 14.184 132.033 12.5943 130.495 11.4616C128.956 10.3288 126.867 9.7618 124.229 9.7618C122.437 9.7618 120.923 10.0116 119.689 10.5107C118.454 11.0094 117.511 11.6988 116.86 12.5778C116.209 13.4573 115.884 14.4547 115.884 15.5705C115.85 16.5013 116.049 17.3129 116.48 18.0057C116.911 18.6994 117.507 19.296 118.268 19.7938C119.029 20.2934 119.908 20.7247 120.906 21.0876C121.904 21.4523 122.969 21.76 124.103 22.0141L128.77 23.1299C131.036 23.6373 133.116 24.314 135.01 25.1587C136.904 26.0051 138.544 27.0447 139.931 28.2788C141.318 29.5139 142.396 30.9682 143.166 32.6414C143.935 34.316 144.328 36.2351 144.345 38.3997C144.328 41.5795 143.521 44.3315 141.923 46.6562C140.325 48.9818 138.025 50.7825 135.023 52.0593C132.022 53.3361 128.407 53.9741 124.179 53.9741C119.985 53.9741 116.337 53.3313 113.234 52.0462C110.131 50.7612 107.713 48.8547 105.979 46.3259C104.246 43.798 103.337 40.6652 103.252 36.9279H113.881C113.999 38.6703 114.502 40.1203 115.39 41.2779C116.278 42.4363 117.47 43.3075 118.967 43.8907C120.463 44.4747 122.158 44.7662 124.053 44.7662C125.913 44.7662 127.532 44.496 128.91 43.9546C130.288 43.4133 131.358 42.6609 132.119 41.697C132.88 40.7331 133.261 39.6255 133.261 38.3735C133.261 37.2064 132.918 36.2264 132.234 35.4309C131.549 34.6363 130.551 33.9596 129.24 33.4021C127.929 32.8438 126.327 32.3364 124.433 31.8799L118.777 30.4595C114.397 29.3938 110.939 27.7288 108.402 25.4628C105.866 23.1969 104.605 20.1446 104.622 16.3055C104.605 13.1596 105.447 10.412 107.146 8.06202C108.846 5.71122 111.183 3.87609 114.16 2.55708C117.136 1.23894 120.518 0.579224 124.306 0.579224C128.162 0.579224 131.531 1.23894 134.415 2.55708C137.297 3.87609 139.542 5.71122 141.149 8.06202C142.756 10.412 143.585 13.1344 143.635 16.2293H133.107V16.2298Z" fill="#ED1F24"/>
<path d="M159.436 53.239H147.667L165.6 1.28943H179.754L197.662 53.239H185.893L172.88 13.1609H172.474L159.436 53.239ZM158.7 32.819H186.501V41.3932H158.7V32.819Z" fill="#ED1F24"/>
<path d="M203.902 53.239V1.28943H214.886V44.1827H237.157V53.239H203.902Z" fill="#ED1F24"/>
<path d="M290.146 27.2641C290.146 32.93 289.076 37.7491 286.937 41.7236C284.797 45.6971 281.889 48.729 278.211 50.8169C274.533 52.9049 270.403 53.9489 265.819 53.9489C261.203 53.9489 257.06 52.901 253.39 50.8039C249.72 48.7068 246.82 45.671 244.69 41.6974C242.559 37.723 241.494 32.9122 241.494 27.2636C241.494 21.5986 242.559 16.7795 244.69 12.805C246.82 8.83146 249.721 5.80048 253.39 3.71165C257.06 1.62326 261.203 0.579712 265.819 0.579712C270.402 0.579712 274.532 1.62326 278.211 3.71165C281.889 5.80091 284.797 8.83189 286.937 12.805C289.076 16.7799 290.146 21.599 290.146 27.2641ZM279.01 27.2641C279.01 23.5947 278.465 20.5002 277.374 17.981C276.283 15.4609 274.749 13.55 272.77 12.248C270.791 10.946 268.474 10.2949 265.819 10.2949C263.164 10.2949 260.848 10.946 258.869 12.248C256.891 13.55 255.356 15.4609 254.266 17.981C253.175 20.5002 252.629 23.5947 252.629 27.2641C252.629 30.9343 253.175 34.0288 254.266 36.548C255.356 39.0681 256.891 40.979 258.869 42.281C260.848 43.583 263.164 44.2341 265.819 44.2341C268.474 44.2341 270.791 43.583 272.77 42.281C274.749 40.979 276.283 39.0681 277.374 36.548C278.465 34.0288 279.01 30.9339 279.01 27.2641Z" fill="#ED1F24"/>
<path d="M346 27.2641C346 32.93 344.931 37.7491 342.792 41.7236C340.652 45.6971 337.744 48.729 334.066 50.8169C330.388 52.9049 326.258 53.9489 321.674 53.9489C317.058 53.9489 312.915 52.901 309.245 50.8039C305.575 48.7068 302.675 45.671 300.544 41.6974C298.414 37.723 297.349 32.9122 297.349 27.2636C297.349 21.5986 298.414 16.7795 300.544 12.805C302.675 8.83146 305.576 5.80048 309.245 3.71165C312.915 1.62326 317.058 0.579712 321.674 0.579712C326.257 0.579712 330.387 1.62326 334.066 3.71165C337.744 5.80091 340.652 8.83189 342.792 12.805C344.931 16.7799 346 21.599 346 27.2641ZM334.865 27.2641C334.865 23.5947 334.32 20.5002 333.229 17.981C332.138 15.4609 330.604 13.55 328.625 12.248C326.646 10.946 324.329 10.2949 321.674 10.2949C319.019 10.2949 316.703 10.946 314.724 12.248C312.745 13.55 311.211 15.4609 310.12 17.981C309.029 20.5002 308.484 23.5947 308.484 27.2641C308.484 30.9343 309.029 34.0288 310.12 36.548C311.211 39.0681 312.745 40.979 314.724 42.281C316.703 43.583 319.019 44.2341 321.674 44.2341C324.329 44.2341 326.646 43.583 328.625 42.281C330.604 40.979 332.138 39.0681 333.229 36.548C334.32 34.0288 334.865 30.9339 334.865 27.2641Z" fill="#ED1F24"/>
<path d="M123.011 77.3438H124.573V87.8936C124.573 89.516 124.447 90.6435 124.196 91.2771C123.944 91.9112 123.525 92.4177 122.937 92.7967C122.349 93.1753 121.637 93.3651 120.801 93.3651C120.171 93.3651 119.549 93.2432 118.937 92.9982C118.324 92.7541 117.646 92.3237 116.902 91.7075L117.731 90.4646C118.547 91.0382 119.225 91.442 119.764 91.6757C120.119 91.8315 120.467 91.9094 120.808 91.9094C121.254 91.9094 121.661 91.7749 122.026 91.5056C122.392 91.2366 122.647 90.8789 122.793 90.4324C122.938 89.9864 123.011 89.1221 123.011 87.8401V77.3438H123.011Z" fill="#ED1F24"/>
<path d="M128.43 77.3438H129.991V86.7783C129.991 87.8971 130.013 88.5951 130.055 88.8715C130.133 89.4877 130.314 90.0029 130.597 90.4176C130.88 90.8315 131.316 91.1792 131.904 91.459C132.492 91.7388 133.083 91.8785 133.678 91.8785C134.195 91.8785 134.69 91.7689 135.165 91.5491C135.64 91.3298 136.036 91.0251 136.355 90.6352C136.674 90.2458 136.908 89.7745 137.056 89.2222C137.162 88.8258 137.215 88.0111 137.215 86.7787V77.3442H138.777V86.7787C138.777 88.1739 138.641 89.3019 138.368 90.1626C138.095 91.023 137.55 91.7719 136.732 92.4094C135.914 93.047 134.924 93.3655 133.762 93.3655C132.502 93.3655 131.421 93.0644 130.522 92.4625C129.622 91.8607 129.02 91.0634 128.716 90.0721C128.525 89.4633 128.429 88.3649 128.429 86.7787V77.3438H128.43Z" fill="#ED1F24"/>
<path d="M141.009 90.0608L142.337 89.264C143.272 90.9851 144.352 91.8459 145.577 91.8459C146.101 91.8459 146.593 91.7236 147.054 91.4795C147.515 91.2345 147.865 90.9077 148.106 90.4964C148.347 90.0856 148.467 89.6504 148.467 89.1896C148.467 88.6657 148.29 88.1517 147.936 87.6491C147.447 86.955 146.555 86.119 145.259 85.1416C143.955 84.1568 143.145 83.4458 142.826 83.0062C142.273 82.2699 141.997 81.4731 141.997 80.6158C141.997 79.9357 142.16 79.3164 142.486 78.7568C142.812 78.1976 143.27 77.7563 143.862 77.4343C144.453 77.1123 145.096 76.9508 145.79 76.9508C146.526 76.9508 147.215 77.1336 147.857 77.4983C148.498 77.8629 149.176 78.534 149.891 79.5114L148.616 80.4783C148.028 79.6994 147.527 79.1854 147.113 78.9378C146.698 78.6902 146.247 78.5662 145.758 78.5662C145.127 78.5662 144.612 78.7572 144.212 79.1397C143.812 79.5222 143.612 79.9931 143.612 80.5527C143.612 80.8926 143.683 81.222 143.824 81.541C143.966 81.8595 144.224 82.2068 144.6 82.5824C144.805 82.7808 145.478 83.3013 146.619 84.1442C147.971 85.1429 148.899 86.032 149.402 86.8109C149.905 87.5903 150.156 88.3728 150.156 89.1591C150.156 90.2923 149.726 91.2767 148.865 92.1127C148.005 92.9486 146.958 93.3664 145.726 93.3664C144.777 93.3664 143.916 93.1131 143.144 92.607C142.372 92.0992 141.66 91.251 141.009 90.0608Z" fill="#ED1F24"/>
<path d="M151.909 78.8733V77.3433H160.473V78.8733H156.988V92.9716H155.394V78.8733H151.909Z" fill="#ED1F24"/>
<path d="M176.192 76.9503C178.558 76.9503 180.539 77.7397 182.134 79.3194C183.729 80.8991 184.526 82.8434 184.526 85.152C184.526 87.4402 183.731 89.3806 182.14 90.9742C180.549 92.5678 178.608 93.3646 176.319 93.3646C174.001 93.3646 172.045 92.5713 170.45 90.9846C168.855 89.398 168.058 87.4785 168.058 85.2264C168.058 83.7251 168.421 82.3334 169.148 81.051C169.874 79.7694 170.865 78.765 172.119 78.0387C173.374 77.3133 174.731 76.9503 176.192 76.9503ZM176.26 78.4699C175.104 78.4699 174.008 78.7711 172.972 79.3738C171.936 79.9765 171.127 80.7881 170.546 81.8086C169.964 82.8295 169.673 83.967 169.673 85.2216C169.673 87.0794 170.317 88.6478 171.604 89.9272C172.892 91.2066 174.444 91.8463 176.26 91.8463C177.473 91.8463 178.596 91.5521 179.628 90.9642C180.66 90.3754 181.465 89.5712 182.044 88.5503C182.622 87.5294 182.911 86.3957 182.911 85.1481C182.911 83.9074 182.622 82.7855 182.044 81.7829C181.465 80.7794 180.652 79.9774 179.602 79.3747C178.552 78.7711 177.438 78.4699 176.26 78.4699Z" fill="#ED1F24"/>
<path d="M187.671 92.9721V77.3438H188.011L198.412 89.3236V77.3438H199.952V92.9721H199.602L189.286 81.138V92.9721H187.671Z" fill="#ED1F24"/>
<path d="M203.767 77.3438H212.723V78.8738H205.329V83.7717H212.66V85.3017H205.329V91.4425H212.66V92.9725H203.767V77.3438Z" fill="#ED1F24"/>
<path d="M219.895 78.8733V77.3433H228.458V78.8733H224.973V92.9716H223.38V78.8733H219.895Z" fill="#ED1F24"/>
<path d="M237.095 77.3438L244.384 92.9721H242.696L240.239 87.8301H233.506L231.071 92.9721H229.329L236.713 77.3438H237.095ZM236.898 80.6641L234.22 86.3214H239.563L236.898 80.6641Z" fill="#ED1F24"/>
<path d="M246.795 77.3438H249.908C251.693 77.3438 252.897 77.4216 253.52 77.5774C254.413 77.7972 255.142 78.2485 255.709 78.9317C256.276 79.6153 256.559 80.4744 256.559 81.5083C256.559 82.5497 256.282 83.4083 255.73 84.085C255.178 84.7617 254.416 85.2165 253.446 85.4501C252.738 85.6203 251.413 85.7052 249.473 85.7052H248.357V92.9721H246.795V77.3438ZM248.357 78.8734V84.1751L251.003 84.2069C252.072 84.2069 252.855 84.1094 253.351 83.9153C253.846 83.7212 254.236 83.4066 254.52 82.9714C254.802 82.5371 254.945 82.051 254.945 81.5136C254.945 80.9905 254.803 80.5114 254.52 80.0766C254.236 79.6419 253.863 79.3325 253.399 79.1488C252.935 78.9652 252.175 78.8729 251.12 78.8729H248.357V78.8734Z" fill="#ED1F24"/>
<path d="M272.092 77.3438L279.38 92.9721H277.693L275.235 87.8301H268.503L266.068 92.9721H264.325L271.709 77.3438H272.092ZM271.895 80.6641L269.217 86.3214H274.56L271.895 80.6641Z" fill="#ED1F24"/>
<path d="M280.921 77.3438H282.525L285.718 88.6056L290.198 77.3438H290.522L294.95 88.6056L298.198 77.3438H299.79L295.299 92.9721H295.009L290.372 81.1472L285.644 92.9721H285.352L280.921 77.3438Z" fill="#ED1F24"/>
<path d="M309.075 77.3438L316.363 92.9721H314.676L312.218 87.8301H305.486L303.051 92.9721H301.308L308.692 77.3438H309.075ZM308.878 80.6641L306.2 86.3214H311.543L308.878 80.6641Z" fill="#ED1F24"/>
<path d="M317.554 77.3438H319.351L323.349 83.7895L327.285 77.3438H329.091L324.14 85.5032V92.9721H322.6V85.5032L317.554 77.3438Z" fill="#ED1F24"/>
<path fill-rule="evenodd" clip-rule="evenodd" d="M34.9912 61.5378C34.959 60.2362 34.2723 59.3985 33.4794 58.6239C26.2416 51.5506 19.0012 44.4794 11.7647 37.4048C9.06621 34.7668 9.03879 31.4612 11.689 28.7597C12.256 28.1818 12.8322 27.6126 13.4114 27.0464C16.0977 24.4188 19.4312 24.3923 22.1083 27.0042C26.0815 30.8807 30.0368 34.7768 34.0038 38.6603C37.1862 41.7753 40.3825 44.8759 43.5571 47.9991C45.2539 49.6684 45.2534 51.3038 43.5946 52.9701C40.9422 55.6342 38.2868 58.2944 35.6313 60.9551C35.4551 61.1318 35.2632 61.2915 34.9912 61.5378Z" fill="#ED1F24"/>
<path fill-rule="evenodd" clip-rule="evenodd" d="M35.9608 38.468C37.2981 38.4836 38.135 37.8387 38.8926 37.0641C45.9733 29.8341 53.0527 22.6029 60.1273 15.366C62.1796 13.2676 64.4733 12.7053 66.8712 13.798C67.4142 14.0456 67.9373 14.3938 68.3782 14.7959C69.2533 15.5936 70.0892 16.4378 70.8987 17.3033C73.0519 19.605 73.1233 22.9497 70.9383 25.2196C66.1657 30.1779 61.324 35.0684 56.5132 39.9889C54.249 42.304 51.993 44.6274 49.7297 46.9434C47.9033 48.8116 46.3593 48.8242 44.515 46.9948C41.9079 44.4085 39.2995 41.8227 36.6932 39.2352C36.4896 39.0341 36.2968 38.8209 35.9608 38.468Z" fill="#ED1F24"/>
<path fill-rule="evenodd" clip-rule="evenodd" d="M58.2886 62.4721C57.0218 62.4865 56.2189 63.0879 55.4965 63.8255C48.7983 70.6634 42.1045 77.5056 35.4085 84.3457C34.8419 84.9244 34.2853 85.5137 33.7009 86.0742C31.4358 88.2452 28.061 88.2426 25.8047 86.0672C25.0762 85.3653 24.3747 84.6342 23.6606 83.9179C21.1514 81.3991 21.1235 77.9995 23.6249 75.4203C26.1006 72.8662 28.6072 70.3427 31.0951 67.7999C35.6065 63.1915 40.1097 58.5747 44.625 53.9702C46.3914 52.1685 47.9732 52.182 49.7779 53.9723C52.4268 56.5999 55.0783 59.2249 57.7268 61.8529C57.886 62.0108 58.0292 62.1853 58.2886 62.4721Z" fill="#ED1F24"/>
<path fill-rule="evenodd" clip-rule="evenodd" d="M59.162 39.7979C59.226 40.8366 59.8984 41.6904 60.6982 42.472C67.8333 49.4439 74.9505 56.4349 82.1174 63.3738C83.9277 65.1266 84.8472 67.0679 84.1793 69.5889C83.5483 71.9706 79.6282 75.5273 77.1895 75.9072C75.32 76.1983 73.6951 75.6465 72.3517 74.3366C65.066 67.2285 57.7878 60.1135 50.5139 52.9936C48.9385 51.4522 48.9107 49.7677 50.4769 48.2276C53.359 45.3942 56.276 42.5951 59.162 39.7979Z" fill="#ED1F24"/>
<path fill-rule="evenodd" clip-rule="evenodd" d="M83.4372 34.2377C83.4298 35.179 82.8911 36.5873 81.7148 37.7561C78.8623 40.5904 76.0289 43.4425 73.185 46.2851C71.7381 47.7312 70.0348 47.8173 68.4956 46.4274C67.2941 45.3434 66.1826 44.1593 65.0342 43.0165C64.2548 42.2414 63.4628 41.4777 62.7074 40.6792C61.3979 39.294 61.1603 37.3214 62.7857 35.7713C65.6948 32.9975 68.4786 30.0923 71.3438 27.2724C73.1358 25.5082 75.293 25.2688 77.6268 25.9242C80.8993 26.8429 83.4298 30.1571 83.4372 34.2377Z" fill="#ED1F24"/>
<path fill-rule="evenodd" clip-rule="evenodd" d="M10.7364 67.5149C10.7021 65.8608 11.2865 64.4621 12.448 63.3002C15.3484 60.3989 18.2427 57.4924 21.1575 54.6059C22.3778 53.397 24.0889 53.2451 25.3709 54.4332C27.5733 56.4724 29.7152 58.5869 31.7501 60.7919C33.0317 62.181 32.8397 63.7624 31.4907 65.121C28.7826 67.8469 25.9762 70.4806 23.3673 73.2979C20.4391 76.4599 16.472 75.7027 14.126 73.9263C11.9998 72.3161 10.78 70.2238 10.7364 67.5149Z" fill="#ED1F24"/>
<path fill-rule="evenodd" clip-rule="evenodd" d="M72.1815 78.8247C72.1784 83.9492 66.7479 88.0024 62.0894 86.3092C61.3552 86.0424 60.6402 85.5581 60.0784 85.0093C57.1615 82.1585 54.2963 79.2546 51.4141 76.3685C50.0812 75.0347 49.9607 73.2701 51.2705 71.8871C53.2393 69.8096 55.285 67.803 57.3381 65.8073C58.4505 64.7268 60.5619 64.5527 61.9288 65.9879C64.6804 68.8775 67.556 71.6495 70.3798 74.4694C71.6366 75.7249 72.1828 77.0457 72.1815 78.8247Z" fill="#ED1F24"/>
<path fill-rule="evenodd" clip-rule="evenodd" d="M30.4728 14.2584C31.7714 14.2171 33.1887 14.8716 34.3929 16.0836C37.1862 18.8952 39.9966 21.6903 42.8013 24.4915C44.2003 25.8893 44.3474 27.6809 42.9949 29.1187C41.0527 31.1823 39.0427 33.1876 36.9791 35.1298C35.5195 36.504 33.7893 36.3539 32.3645 34.9257C29.6882 32.2428 27.1011 29.4599 24.2977 26.9163C21.1871 24.0938 21.7058 19.917 23.9496 17.255C25.5297 15.3803 27.5237 14.2606 30.4728 14.2584Z" fill="#ED1F24"/>
<path fill-rule="evenodd" clip-rule="evenodd" d="M77.6316 50.3765C77.6343 45.8115 81.3511 42.0895 85.9065 42.0903C90.4222 42.0912 94.2104 45.8816 94.2035 50.3913C94.1956 54.917 90.4266 58.6704 85.8917 58.6669C81.328 58.6634 77.6295 54.951 77.6316 50.3765Z" fill="#ED1F24"/>
<path fill-rule="evenodd" clip-rule="evenodd" d="M55.1746 11.8428C55.1489 16.4213 51.4521 20.0619 46.8458 20.0441C42.2782 20.0263 38.5888 16.3038 38.6136 11.7375C38.6385 7.18691 42.3983 3.48055 46.9507 3.52058C51.5361 3.56106 55.1998 7.26829 55.1746 11.8428Z" fill="#ED1F24"/>
<path fill-rule="evenodd" clip-rule="evenodd" d="M47.375 80.9327C51.9513 80.917 55.6394 84.5368 55.6598 89.0643C55.6811 93.7411 52.0601 97.4144 47.4203 97.4209C42.8274 97.4275 39.1311 93.7672 39.1163 89.1975C39.1015 84.629 42.7796 80.9488 47.375 80.9327Z" fill="#ED1F24"/>
<path fill-rule="evenodd" clip-rule="evenodd" d="M16.5282 50.7856C16.4398 55.411 12.7426 59.0121 8.1624 58.9337C3.4708 58.8532 -0.086738 55.1382 0.00116696 50.4117C0.086896 45.835 3.9125 42.3301 8.70593 42.4372C12.9946 42.5329 16.6121 46.3938 16.5282 50.7856Z" fill="#ED1F24"/>
</svg>
