<svg width="346" height="98" viewBox="0 0 346 98" fill="none" xmlns="http://www.w3.org/2000/svg">
<path d="M133.107 16.2297C132.905 14.184 132.033 12.5943 130.495 11.4616C128.956 10.3288 126.867 9.76177 124.229 9.76177C122.437 9.76177 120.923 10.0116 119.689 10.5107C118.454 11.0094 117.511 11.6987 116.86 12.5778C116.209 13.4573 115.884 14.4547 115.884 15.5705C115.85 16.5013 116.049 17.3129 116.48 18.0057C116.911 18.6994 117.507 19.296 118.268 19.7938C119.029 20.2934 119.908 20.7246 120.906 21.0876C121.904 21.4523 122.969 21.7599 124.103 22.0141L128.77 23.1298C131.036 23.6373 133.116 24.3139 135.01 25.1586C136.904 26.005 138.544 27.0447 139.931 28.2788C141.318 29.5138 142.396 30.9682 143.166 32.6414C143.935 34.316 144.328 36.2351 144.345 38.3996C144.328 41.5794 143.521 44.3315 141.923 46.6562C140.325 48.9817 138.025 50.7825 135.023 52.0593C132.022 53.3361 128.407 53.974 124.179 53.974C119.985 53.974 116.337 53.3313 113.234 52.0462C110.131 50.7611 107.713 48.8546 105.979 46.3259C104.246 43.7979 103.337 40.6651 103.252 36.9279H113.881C113.999 38.6703 114.502 40.1203 115.39 41.2779C116.278 42.4363 117.47 43.3075 118.967 43.8906C120.463 44.4746 122.158 44.7662 124.053 44.7662C125.913 44.7662 127.532 44.496 128.91 43.9546C130.288 43.4132 131.358 42.6608 132.119 41.6969C132.88 40.733 133.261 39.6255 133.261 38.3735C133.261 37.2064 132.918 36.2264 132.234 35.4309C131.549 34.6362 130.551 33.9596 129.24 33.4021C127.929 32.8438 126.327 32.3364 124.433 31.8799L118.777 30.4595C114.397 29.3937 110.939 27.7288 108.402 25.4628C105.866 23.1969 104.605 20.1446 104.622 16.3055C104.605 13.1596 105.447 10.4119 107.146 8.06199C108.846 5.71119 111.183 3.87606 114.16 2.55705C117.136 1.23891 120.518 0.579193 124.306 0.579193C128.162 0.579193 131.531 1.23891 134.415 2.55705C137.297 3.87606 139.542 5.71119 141.149 8.06199C142.756 10.4119 143.585 13.1344 143.635 16.2293H133.107V16.2297Z" fill="white"/>
<path d="M159.436 53.239H147.667L165.6 1.28941H179.754L197.662 53.239H185.893L172.88 13.1609H172.474L159.436 53.239ZM158.7 32.819H186.501V41.3932H158.7V32.819Z" fill="white"/>
<path d="M203.902 53.239V1.28941H214.886V44.1827H237.157V53.239H203.902Z" fill="white"/>
<path d="M290.146 27.264C290.146 32.9299 289.076 37.749 286.937 41.7235C284.797 45.697 281.889 48.7289 278.211 50.8169C274.533 52.9048 270.403 53.9488 265.819 53.9488C261.203 53.9488 257.06 52.9009 253.39 50.8038C249.72 48.7067 246.82 45.6709 244.69 41.6974C242.559 37.7229 241.494 32.9121 241.494 27.2636C241.494 21.5985 242.559 16.7794 244.69 12.8049C246.82 8.83138 249.721 5.8004 253.39 3.71157C257.06 1.62318 261.203 0.579636 265.819 0.579636C270.402 0.579636 274.532 1.62318 278.211 3.71157C281.889 5.80084 284.797 8.83182 286.937 12.8049C289.076 16.7798 290.146 21.5989 290.146 27.264ZM279.01 27.264C279.01 23.5946 278.465 20.5001 277.374 17.9809C276.283 15.4608 274.749 13.55 272.77 12.2479C270.791 10.9459 268.474 10.2949 265.819 10.2949C263.164 10.2949 260.848 10.9459 258.869 12.2479C256.891 13.55 255.356 15.4608 254.266 17.9809C253.175 20.5001 252.629 23.5946 252.629 27.264C252.629 30.9342 253.175 34.0288 254.266 36.548C255.356 39.0681 256.891 40.9789 258.869 42.2809C260.848 43.583 263.164 44.234 265.819 44.234C268.474 44.234 270.791 43.583 272.77 42.2809C274.749 40.9789 276.283 39.0681 277.374 36.548C278.465 34.0288 279.01 30.9338 279.01 27.264Z" fill="white"/>
<path d="M346 27.264C346 32.9299 344.931 37.749 342.792 41.7235C340.652 45.697 337.744 48.7289 334.066 50.8169C330.388 52.9048 326.258 53.9488 321.674 53.9488C317.058 53.9488 312.915 52.9009 309.245 50.8038C305.575 48.7067 302.675 45.6709 300.544 41.6974C298.414 37.7229 297.349 32.9121 297.349 27.2636C297.349 21.5985 298.414 16.7794 300.544 12.8049C302.675 8.83138 305.576 5.8004 309.245 3.71157C312.915 1.62318 317.058 0.579636 321.674 0.579636C326.257 0.579636 330.387 1.62318 334.066 3.71157C337.744 5.80084 340.652 8.83182 342.792 12.8049C344.931 16.7798 346 21.5989 346 27.264ZM334.865 27.264C334.865 23.5946 334.32 20.5001 333.229 17.9809C332.138 15.4608 330.604 13.55 328.625 12.2479C326.646 10.9459 324.329 10.2949 321.674 10.2949C319.019 10.2949 316.703 10.9459 314.724 12.2479C312.745 13.55 311.211 15.4608 310.12 17.9809C309.029 20.5001 308.484 23.5946 308.484 27.264C308.484 30.9342 309.029 34.0288 310.12 36.548C311.211 39.0681 312.745 40.9789 314.724 42.2809C316.703 43.583 319.019 44.234 321.674 44.234C324.329 44.234 326.646 43.583 328.625 42.2809C330.604 40.9789 332.138 39.0681 333.229 36.548C334.32 34.0288 334.865 30.9338 334.865 27.264Z" fill="white"/>
<path d="M123.011 77.3437H124.573V87.8936C124.573 89.5159 124.447 90.6434 124.196 91.2771C123.944 91.9111 123.525 92.4176 122.937 92.7967C122.349 93.1753 121.637 93.365 120.801 93.365C120.171 93.365 119.549 93.2432 118.937 92.9982C118.324 92.754 117.646 92.3236 116.902 91.7074L117.731 90.4646C118.547 91.0381 119.225 91.442 119.764 91.6757C120.119 91.8315 120.467 91.9094 120.808 91.9094C121.254 91.9094 121.661 91.7749 122.026 91.5055C122.392 91.2366 122.647 90.8789 122.793 90.4324C122.938 89.9863 123.011 89.1221 123.011 87.8401V77.3437H123.011Z" fill="white"/>
<path d="M128.43 77.3437H129.991V86.7782C129.991 87.8971 130.013 88.5951 130.055 88.8714C130.133 89.4876 130.314 90.0029 130.597 90.4176C130.88 90.8314 131.316 91.1791 131.904 91.459C132.492 91.7388 133.083 91.8785 133.678 91.8785C134.195 91.8785 134.69 91.7688 135.165 91.549C135.64 91.3297 136.036 91.0251 136.355 90.6352C136.674 90.2457 136.908 89.7744 137.056 89.2222C137.162 88.8257 137.215 88.0111 137.215 86.7787V77.3441H138.777V86.7787C138.777 88.1738 138.641 89.3018 138.368 90.1626C138.095 91.0229 137.55 91.7718 136.732 92.4094C135.914 93.0469 134.924 93.3655 133.762 93.3655C132.502 93.3655 131.421 93.0643 130.522 92.4625C129.622 91.8606 129.02 91.0634 128.716 90.0721C128.525 89.4633 128.429 88.3649 128.429 86.7787V77.3437H128.43Z" fill="white"/>
<path d="M141.009 90.0607L142.337 89.2639C143.272 90.985 144.352 91.8458 145.577 91.8458C146.101 91.8458 146.593 91.7235 147.054 91.4794C147.515 91.2344 147.865 90.9076 148.106 90.4963C148.347 90.0855 148.467 89.6504 148.467 89.1895C148.467 88.6656 148.29 88.1516 147.936 87.649C147.447 86.9549 146.555 86.1189 145.259 85.1415C143.955 84.1567 143.145 83.4457 142.826 83.0061C142.273 82.2698 141.997 81.473 141.997 80.6157C141.997 79.9356 142.16 79.3163 142.486 78.7567C142.812 78.1975 143.27 77.7562 143.862 77.4342C144.453 77.1122 145.096 76.9507 145.79 76.9507C146.526 76.9507 147.215 77.1335 147.857 77.4982C148.498 77.8628 149.176 78.5339 149.891 79.5113L148.616 80.4782C148.028 79.6993 147.527 79.1853 147.113 78.9377C146.698 78.6901 146.247 78.5661 145.758 78.5661C145.127 78.5661 144.612 78.7571 144.212 79.1396C143.812 79.5222 143.612 79.993 143.612 80.5526C143.612 80.8925 143.683 81.2219 143.824 81.5409C143.966 81.8595 144.224 82.2067 144.6 82.5823C144.805 82.7807 145.478 83.3012 146.619 84.1441C147.971 85.1428 148.899 86.0319 149.402 86.8109C149.905 87.5903 150.156 88.3727 150.156 89.159C150.156 90.2922 149.726 91.2766 148.865 92.1126C148.005 92.9485 146.958 93.3663 145.726 93.3663C144.777 93.3663 143.916 93.113 143.144 92.6069C142.372 92.0991 141.66 91.2509 141.009 90.0607Z" fill="white"/>
<path d="M151.909 78.8733V77.3433H160.473V78.8733H156.988V92.9716H155.394V78.8733H151.909Z" fill="white"/>
<path d="M176.192 76.9503C178.558 76.9503 180.539 77.7397 182.134 79.3194C183.729 80.8991 184.526 82.8434 184.526 85.152C184.526 87.4401 183.731 89.3806 182.14 90.9742C180.549 92.5678 178.608 93.3646 176.319 93.3646C174.001 93.3646 172.045 92.5713 170.45 90.9846C168.855 89.398 168.058 87.4784 168.058 85.2264C168.058 83.7251 168.421 82.3334 169.148 81.0509C169.874 79.7693 170.865 78.765 172.119 78.0387C173.374 77.3132 174.731 76.9503 176.192 76.9503ZM176.26 78.4699C175.104 78.4699 174.008 78.7711 172.972 79.3738C171.936 79.9765 171.127 80.7881 170.546 81.8086C169.964 82.8295 169.673 83.967 169.673 85.2216C169.673 87.0794 170.317 88.6477 171.604 89.9272C172.892 91.2066 174.444 91.8463 176.26 91.8463C177.473 91.8463 178.596 91.5521 179.628 90.9642C180.66 90.3754 181.465 89.5712 182.044 88.5503C182.622 87.5293 182.911 86.3957 182.911 85.1481C182.911 83.9074 182.622 82.7855 182.044 81.7829C181.465 80.7794 180.652 79.9774 179.602 79.3746C178.552 78.7711 177.438 78.4699 176.26 78.4699Z" fill="white"/>
<path d="M187.671 92.972V77.3437H188.011L198.412 89.3236V77.3437H199.952V92.972H199.602L189.286 81.138V92.972H187.671Z" fill="white"/>
<path d="M203.767 77.3437H212.723V78.8738H205.329V83.7716H212.66V85.3017H205.329V91.4424H212.66V92.9725H203.767V77.3437Z" fill="white"/>
<path d="M219.895 78.8733V77.3433H228.458V78.8733H224.973V92.9716H223.38V78.8733H219.895Z" fill="white"/>
<path d="M237.095 77.3437L244.384 92.972H242.696L240.239 87.8301H233.506L231.071 92.972H229.329L236.713 77.3437H237.095ZM236.898 80.6641L234.22 86.3213H239.563L236.898 80.6641Z" fill="white"/>
<path d="M246.795 77.3437H249.908C251.693 77.3437 252.897 77.4216 253.52 77.5774C254.413 77.7971 255.142 78.2484 255.709 78.9316C256.276 79.6153 256.559 80.4743 256.559 81.5083C256.559 82.5497 256.282 83.4083 255.73 84.085C255.178 84.7617 254.416 85.2164 253.446 85.4501C252.738 85.6202 251.413 85.7051 249.473 85.7051H248.357V92.972H246.795V77.3437ZM248.357 78.8733V84.175L251.003 84.2068C252.072 84.2068 252.855 84.1093 253.351 83.9152C253.846 83.7212 254.236 83.4065 254.52 82.9713C254.802 82.537 254.945 82.051 254.945 81.5135C254.945 80.9904 254.803 80.5113 254.52 80.0766C254.236 79.6418 253.863 79.3324 253.399 79.1488C252.935 78.9651 252.175 78.8729 251.12 78.8729H248.357V78.8733Z" fill="white"/>
<path d="M272.092 77.3437L279.38 92.972H277.693L275.235 87.8301H268.503L266.068 92.972H264.325L271.709 77.3437H272.092ZM271.895 80.6641L269.217 86.3213H274.56L271.895 80.6641Z" fill="white"/>
<path d="M280.921 77.3437H282.525L285.718 88.6055L290.198 77.3437H290.522L294.95 88.6055L298.198 77.3437H299.79L295.299 92.972H295.009L290.372 81.1471L285.644 92.972H285.352L280.921 77.3437Z" fill="white"/>
<path d="M309.075 77.3437L316.363 92.972H314.676L312.218 87.8301H305.486L303.051 92.972H301.308L308.692 77.3437H309.075ZM308.878 80.6641L306.2 86.3213H311.543L308.878 80.6641Z" fill="white"/>
<path d="M317.554 77.3437H319.351L323.349 83.7895L327.285 77.3437H329.091L324.14 85.5032V92.972H322.6V85.5032L317.554 77.3437Z" fill="white"/>
<path fill-rule="evenodd" clip-rule="evenodd" d="M34.9912 61.5378C34.959 60.2362 34.2723 59.3985 33.4794 58.6239C26.2416 51.5506 19.0012 44.4794 11.7647 37.4048C9.06621 34.7668 9.03879 31.4612 11.689 28.7597C12.256 28.1818 12.8322 27.6126 13.4114 27.0464C16.0977 24.4188 19.4312 24.3923 22.1083 27.0042C26.0815 30.8807 30.0368 34.7768 34.0038 38.6603C37.1862 41.7753 40.3825 44.8759 43.5571 47.9991C45.2539 49.6684 45.2534 51.3038 43.5946 52.9701C40.9422 55.6342 38.2868 58.2944 35.6313 60.9551C35.4551 61.1318 35.2632 61.2915 34.9912 61.5378Z" fill="white"/>
<path fill-rule="evenodd" clip-rule="evenodd" d="M35.9608 38.468C37.2981 38.4836 38.135 37.8387 38.8926 37.0641C45.9733 29.8341 53.0527 22.6029 60.1273 15.3659C62.1796 13.2675 64.4733 12.7053 66.8712 13.798C67.4142 14.0456 67.9373 14.3938 68.3782 14.7959C69.2533 15.5935 70.0892 16.4378 70.8987 17.3033C73.0519 19.605 73.1233 22.9497 70.9383 25.2196C66.1657 30.1779 61.324 35.0684 56.5132 39.9889C54.249 42.304 51.993 44.6274 49.7297 46.9434C47.9033 48.8116 46.3593 48.8242 44.515 46.9947C41.9079 44.4085 39.2995 41.8227 36.6932 39.2352C36.4896 39.0341 36.2968 38.8209 35.9608 38.468Z" fill="white"/>
<path fill-rule="evenodd" clip-rule="evenodd" d="M58.2886 62.4721C57.0218 62.4865 56.2189 63.0879 55.4965 63.8255C48.7983 70.6634 42.1045 77.5056 35.4085 84.3456C34.8419 84.9244 34.2853 85.5136 33.7009 86.0741C31.4358 88.2452 28.061 88.2426 25.8047 86.0672C25.0762 85.3652 24.3747 84.6341 23.6606 83.9178C21.1514 81.3991 21.1235 77.9995 23.6249 75.4202C26.1006 72.8662 28.6072 70.3426 31.0951 67.7999C35.6065 63.1914 40.1097 58.5747 44.625 53.9701C46.3914 52.1685 47.9732 52.182 49.7779 53.9723C52.4268 56.5999 55.0783 59.2248 57.7268 61.8528C57.886 62.0108 58.0292 62.1853 58.2886 62.4721Z" fill="white"/>
<path fill-rule="evenodd" clip-rule="evenodd" d="M59.162 39.7978C59.226 40.8366 59.8984 41.6904 60.6982 42.472C67.8333 49.4439 74.9505 56.4349 82.1174 63.3738C83.9277 65.1266 84.8472 67.0679 84.1793 69.5889C83.5483 71.9706 79.6282 75.5273 77.1895 75.9072C75.32 76.1983 73.6951 75.6465 72.3517 74.3366C65.066 67.2285 57.7878 60.1135 50.5139 52.9936C48.9385 51.4522 48.9107 49.7677 50.4769 48.2276C53.359 45.3942 56.276 42.5951 59.162 39.7978Z" fill="white"/>
<path fill-rule="evenodd" clip-rule="evenodd" d="M83.4372 34.2376C83.4298 35.1789 82.8911 36.5871 81.7148 37.756C78.8623 40.5903 76.0289 43.4424 73.185 46.285C71.7381 47.7311 70.0348 47.8172 68.4956 46.4273C67.2941 45.3433 66.1826 44.1592 65.0342 43.0164C64.2548 42.2413 63.4628 41.4776 62.7074 40.6791C61.3979 39.2939 61.1603 37.3213 62.7857 35.7712C65.6948 32.9974 68.4786 30.0922 71.3438 27.2723C73.1358 25.5081 75.293 25.2687 77.6268 25.9241C80.8993 26.8428 83.4298 30.157 83.4372 34.2376Z" fill="white"/>
<path fill-rule="evenodd" clip-rule="evenodd" d="M10.7364 67.5149C10.7021 65.8608 11.2865 64.4621 12.448 63.3002C15.3484 60.3989 18.2427 57.4924 21.1575 54.6059C22.3778 53.397 24.0889 53.2451 25.3709 54.4331C27.5733 56.4724 29.7152 58.5869 31.7501 60.7919C33.0317 62.181 32.8397 63.7624 31.4907 65.121C28.7826 67.8469 25.9762 70.4806 23.3673 73.2979C20.4391 76.4598 16.472 75.7026 14.126 73.9263C11.9998 72.3161 10.78 70.2238 10.7364 67.5149Z" fill="white"/>
<path fill-rule="evenodd" clip-rule="evenodd" d="M72.1815 78.8246C72.1784 83.9492 66.7479 88.0024 62.0894 86.3091C61.3552 86.0423 60.6402 85.558 60.0784 85.0092C57.1615 82.1584 54.2963 79.2545 51.4141 76.3685C50.0812 75.0347 49.9607 73.27 51.2705 71.8871C53.2393 69.8095 55.285 67.803 57.3381 65.8072C58.4505 64.7267 60.5619 64.5526 61.9288 65.9878C64.6804 68.8774 67.556 71.6494 70.3798 74.4694C71.6366 75.7248 72.1828 77.0456 72.1815 78.8246Z" fill="white"/>
<path fill-rule="evenodd" clip-rule="evenodd" d="M30.4728 14.2584C31.7714 14.2171 33.1887 14.8716 34.3929 16.0835C37.1862 18.8952 39.9966 21.6903 42.8013 24.4915C44.2003 25.8893 44.3474 27.6809 42.9949 29.1187C41.0527 31.1823 39.0427 33.1876 36.9791 35.1297C35.5195 36.504 33.7893 36.3539 32.3645 34.9256C29.6882 32.2428 27.1011 29.4599 24.2977 26.9163C21.1871 24.0938 21.7058 19.917 23.9496 17.255C25.5297 15.3803 27.5237 14.2606 30.4728 14.2584Z" fill="white"/>
<path fill-rule="evenodd" clip-rule="evenodd" d="M77.6316 50.3765C77.6343 45.8115 81.3511 42.0895 85.9065 42.0903C90.4222 42.0912 94.2104 45.8816 94.2035 50.3912C94.1956 54.917 90.4266 58.6704 85.8917 58.6669C81.328 58.6634 77.6295 54.951 77.6316 50.3765Z" fill="white"/>
<path fill-rule="evenodd" clip-rule="evenodd" d="M55.1746 11.8428C55.1489 16.4212 51.4521 20.0619 46.8458 20.044C42.2782 20.0262 38.5888 16.3037 38.6136 11.7375C38.6385 7.18686 42.3983 3.4805 46.9507 3.52053C51.5361 3.561 55.1998 7.26824 55.1746 11.8428Z" fill="white"/>
<path fill-rule="evenodd" clip-rule="evenodd" d="M47.375 80.9325C51.9513 80.9169 55.6394 84.5367 55.6598 89.0642C55.6811 93.741 52.0601 97.4143 47.4203 97.4208C42.8274 97.4273 39.1311 93.7671 39.1163 89.1974C39.1015 84.6289 42.7796 80.9487 47.375 80.9325Z" fill="white"/>
<path fill-rule="evenodd" clip-rule="evenodd" d="M16.5282 50.7855C16.4398 55.411 12.7426 59.012 8.1624 58.9337C3.4708 58.8532 -0.086738 55.1381 0.00116696 50.4117C0.086896 45.835 3.9125 42.3301 8.70593 42.4372C12.9946 42.5329 16.6121 46.3938 16.5282 50.7855Z" fill="white"/>
</svg>
